<svg xmlns="http://www.w3.org/2000/svg" viewBox="0 0 512 512">
  <defs><linearGradient id="g" x1="0" y1="0" x2="1" y2="1"><stop stop-color="#d9b56d"/><stop offset="1" stop-color="#6f8c69"/></linearGradient></defs>
  <rect width="512" height="512" rx="112" fill="#111813"/>
  <path d="M256 70 420 132v116c0 96-66 162-164 194C158 410 92 344 92 248V132z" fill="url(#g)"/>
  <path d="M256 114c-46 54-67 107-62 160 5 54 32 94 62 121 30-27 57-67 62-121 5-53-16-106-62-160z" fill="#101711"/>
  <path d="M157 205c50 5 77 27 99 61 22-34 49-56 99-61-18 41-49 69-99 86-50-17-81-45-99-86z" fill="#d9b56d"/>
</svg>
