<svg xmlns="http://www.w3.org/2000/svg" viewBox="0 0 1200 720" role="img" aria-labelledby="title desc">
  <title id="title">Private wine cellar</title>
  <desc id="desc">Dark premium cellar with bottle racks and a tasting table.</desc>
  <rect width="1200" height="720" fill="#0b0a0c"/>
  <rect x="52" y="58" width="1096" height="604" rx="18" fill="#151216"/>
  <rect x="86" y="88" width="318" height="518" fill="#20191d"/>
  <rect x="438" y="88" width="318" height="518" fill="#1c171a"/>
  <rect x="790" y="88" width="318" height="518" fill="#20191d"/>
  <g fill="#302329">
    <rect x="106" y="116" width="278" height="12"/><rect x="106" y="210" width="278" height="12"/><rect x="106" y="304" width="278" height="12"/><rect x="106" y="398" width="278" height="12"/><rect x="106" y="492" width="278" height="12"/>
    <rect x="458" y="116" width="278" height="12"/><rect x="458" y="210" width="278" height="12"/><rect x="458" y="304" width="278" height="12"/><rect x="458" y="398" width="278" height="12"/><rect x="458" y="492" width="278" height="12"/>
    <rect x="810" y="116" width="278" height="12"/><rect x="810" y="210" width="278" height="12"/><rect x="810" y="304" width="278" height="12"/><rect x="810" y="398" width="278" height="12"/><rect x="810" y="492" width="278" height="12"/>
  </g>
  <g fill="#09090b">
    <path d="M128 157h20v14l8 13v25h-36v-25l8-13z"/><path d="M183 151h18v13l8 13v32h-34v-32l8-13z"/><path d="M240 156h20v14l8 13v26h-36v-26l8-13z"/><path d="M300 148h19v14l8 13v34h-35v-34l8-13z"/>
    <path d="M480 157h20v14l8 13v25h-36v-25l8-13z"/><path d="M535 151h18v13l8 13v32h-34v-32l8-13z"/><path d="M592 156h20v14l8 13v26h-36v-26l8-13z"/><path d="M652 148h19v14l8 13v34h-35v-34l8-13z"/>
    <path d="M832 157h20v14l8 13v25h-36v-25l8-13z"/><path d="M887 151h18v13l8 13v32h-34v-32l8-13z"/><path d="M944 156h20v14l8 13v26h-36v-26l8-13z"/><path d="M1004 148h19v14l8 13v34h-35v-34l8-13z"/>
  </g>
  <g fill="#7e2948">
    <rect x="123" y="184" width="30" height="12"/><rect x="178" y="183" width="28" height="11"/><rect x="235" y="185" width="30" height="11"/><rect x="295" y="183" width="29" height="12"/>
    <rect x="475" y="184" width="30" height="12"/><rect x="530" y="183" width="28" height="11"/><rect x="587" y="185" width="30" height="11"/><rect x="647" y="183" width="29" height="12"/>
    <rect x="827" y="184" width="30" height="12"/><rect x="882" y="183" width="28" height="11"/><rect x="939" y="185" width="30" height="11"/><rect x="999" y="183" width="29" height="12"/>
  </g>
  <g fill="#0a0a0c" opacity=".96">
    <path d="M128 251h20v14l8 13v25h-36v-25l8-13z"/><path d="M183 245h18v13l8 13v32h-34v-32l8-13z"/><path d="M240 250h20v14l8 13v26h-36v-26l8-13z"/><path d="M300 242h19v14l8 13v34h-35v-34l8-13z"/>
    <path d="M480 251h20v14l8 13v25h-36v-25l8-13z"/><path d="M535 245h18v13l8 13v32h-34v-32l8-13z"/><path d="M592 250h20v14l8 13v26h-36v-26l8-13z"/><path d="M652 242h19v14l8 13v34h-35v-34l8-13z"/>
    <path d="M832 251h20v14l8 13v25h-36v-25l8-13z"/><path d="M887 245h18v13l8 13v32h-34v-32l8-13z"/><path d="M944 250h20v14l8 13v26h-36v-26l8-13z"/><path d="M1004 242h19v14l8 13v34h-35v-34l8-13z"/>
  </g>
  <rect x="376" y="508" width="448" height="30" rx="8" fill="#40262f"/>
  <rect x="408" y="538" width="22" height="92" fill="#261b1f"/><rect x="770" y="538" width="22" height="92" fill="#261b1f"/>
  <path d="M574 428h52v24l13 25v47h-78v-47l13-25z" fill="#09090b"/>
  <rect x="570" y="480" width="60" height="21" fill="#a4a09a"/>
  <path d="M906 560h62l-8 24h-46z" fill="#b7a67d" opacity=".78"/>
  <path d="M932 584v34" stroke="#b7a67d" stroke-width="8"/><path d="M910 622h44" stroke="#b7a67d" stroke-width="8" stroke-linecap="round"/>
  <circle cx="600" cy="96" r="5" fill="#d1c19b"/><circle cx="248" cy="96" r="5" fill="#d1c19b"/><circle cx="952" cy="96" r="5" fill="#d1c19b"/>
</svg>
