<svg xmlns="http://www.w3.org/2000/svg" viewBox="0 0 1200 720" role="img" aria-labelledby="title desc">
  <title id="title">Night hospitality district</title>
  <desc id="desc">Dark city district with premium bars, clubs and illuminated windows.</desc>
  <rect width="1200" height="720" fill="#09090b"/>
  <rect y="510" width="1200" height="210" fill="#111014"/>
  <path d="M0 510h150V280h130V510h84V188h176v322h84V244h124v266h74V132h210v378h168v210H0z" fill="#19161a"/>
  <path d="M34 510h116V340H34zM302 510h62V280h-62zM782 510h40V262h-40zM1032 510h94V222h-94z" fill="#211b20"/>
  <g fill="#8d2d50">
    <rect x="390" y="232" width="56" height="22"/><rect x="462" y="232" width="42" height="22"/><rect x="390" y="282" width="56" height="22"/><rect x="462" y="282" width="42" height="22"/>
    <rect x="852" y="176" width="60" height="24"/><rect x="934" y="176" width="54" height="24"/><rect x="852" y="228" width="60" height="24"/><rect x="934" y="228" width="54" height="24"/>
    <rect x="852" y="280" width="60" height="24"/><rect x="934" y="280" width="54" height="24"/>
  </g>
  <g fill="#b7aa83">
    <rect x="56" y="372" width="28" height="18"/><rect x="98" y="372" width="28" height="18"/><rect x="56" y="414" width="28" height="18"/><rect x="98" y="414" width="28" height="18"/>
    <rect x="182" y="322" width="34" height="18"/><rect x="230" y="322" width="34" height="18"/><rect x="182" y="366" width="34" height="18"/><rect x="230" y="366" width="34" height="18"/>
    <rect x="652" y="292" width="26" height="18"/><rect x="696" y="292" width="26" height="18"/><rect x="652" y="336" width="26" height="18"/><rect x="696" y="336" width="26" height="18"/>
  </g>
  <rect x="126" y="470" width="186" height="40" fill="#6f2341"/><rect x="848" y="456" width="178" height="54" fill="#7d2948"/>
  <g fill="#30272d"><rect x="0" y="548" width="1200" height="8"/><rect x="92" y="602" width="1016" height="6"/></g>
  <path d="M96 556h214l80 164H0zM890 556h214l96 164H810z" fill="#151318"/>
  <g fill="#706a66"><circle cx="488" cy="594" r="16"/><circle cx="548" cy="594" r="16"/><circle cx="626" cy="594" r="16"/><circle cx="686" cy="594" r="16"/></g>
</svg>
