<svg xmlns="http://www.w3.org/2000/svg" viewBox="0 0 1200 720" role="img" aria-labelledby="title desc">
  <title id="title">Premium beverage production floor</title>
  <desc id="desc">Dark production room with fermentation vessels and copper details.</desc>
  <rect width="1200" height="720" fill="#0a0a0c"/>
  <rect y="470" width="1200" height="250" fill="#121014"/>
  <rect x="54" y="56" width="1092" height="414" rx="16" fill="#171419"/>
  <g stroke="#3d3036" stroke-width="14" fill="none">
    <path d="M82 136h1036M210 90v376M600 90v376M990 90v376"/>
    <path d="M120 190h170v96H120zM826 170h246v116H826z"/>
  </g>
  <g>
    <path d="M276 244h196v262c0 78-38 126-98 126s-98-48-98-126z" fill="#5d4748"/>
    <rect x="276" y="244" width="196" height="30" rx="12" fill="#9f755a"/>
    <path d="M324 226h100v18H324z" fill="#b58c69"/>
    <path d="M326 632v40M422 632v40" stroke="#6d4c42" stroke-width="18"/>
    <circle cx="374" cy="375" r="31" fill="#171419" stroke="#b58c69" stroke-width="8"/>
    <path d="M374 340v70M339 375h70" stroke="#b58c69" stroke-width="5"/>
  </g>
  <g>
    <path d="M516 288h174v226c0 66-34 108-87 108s-87-42-87-108z" fill="#37373b"/>
    <rect x="516" y="288" width="174" height="26" rx="10" fill="#6b6765"/>
    <path d="M560 272h86v16h-86z" fill="#7d7873"/>
    <path d="M558 622v44M648 622v44" stroke="#555154" stroke-width="17"/>
    <circle cx="603" cy="404" r="28" fill="#151519" stroke="#85807a" stroke-width="7"/>
  </g>
  <g>
    <path d="M734 330h142v190c0 58-29 94-71 94s-71-36-71-94z" fill="#292a2e"/>
    <rect x="734" y="330" width="142" height="22" rx="9" fill="#5e5b5a"/>
    <path d="M771 316h68v14h-68z" fill="#74706d"/>
    <path d="M768 614v45M842 614v45" stroke="#49474a" stroke-width="15"/>
  </g>
  <g stroke="#7b2948" stroke-width="12" fill="none">
    <path d="M374 226V150h229v122M603 150h202v166"/>
    <path d="M805 316v-70h160"/>
  </g>
  <g fill="#b9a67a">
    <rect x="150" y="516" width="62" height="76" rx="8"/><rect x="920" y="500" width="98" height="34" rx="7"/><rect x="1038" y="500" width="44" height="34" rx="7"/>
  </g>
  <g fill="#242126"><rect x="122" y="592" width="130" height="14"/><rect x="904" y="534" width="194" height="18"/></g>
  <circle cx="1070" cy="92" r="7" fill="#c5b58d"/><circle cx="1020" cy="92" r="7" fill="#c5b58d"/>
</svg>
